<?xml version="1.0" encoding="UTF-8" standalone="no"?>
<!-- Created with Inkscape (http://www.inkscape.org/) -->

<svg
   width="113.96221mm"
   height="43.903568mm"
   viewBox="0 0 113.96221 43.903568"
   version="1.1"
   id="svg956"
   inkscape:version="1.1.2 (b8e25be833, 2022-02-05)"
   sodipodi:docname="dulcesol.svg"
   xmlns:inkscape="http://www.inkscape.org/namespaces/inkscape"
   xmlns:sodipodi="http://sodipodi.sourceforge.net/DTD/sodipodi-0.dtd"
   xmlns="http://www.w3.org/2000/svg"
   xmlns:svg="http://www.w3.org/2000/svg">
  <sodipodi:namedview
     id="namedview958"
     pagecolor="#ffffff"
     bordercolor="#666666"
     borderopacity="1.0"
     inkscape:pageshadow="2"
     inkscape:pageopacity="0.0"
     inkscape:pagecheckerboard="0"
     inkscape:document-units="mm"
     showgrid="false"
     fit-margin-top="0"
     fit-margin-left="0"
     fit-margin-right="0"
     fit-margin-bottom="0"
     inkscape:zoom="0.54252946"
     inkscape:cx="395.37023"
     inkscape:cy="429.46976"
     inkscape:window-width="1440"
     inkscape:window-height="837"
     inkscape:window-x="-8"
     inkscape:window-y="-8"
     inkscape:window-maximized="1"
     inkscape:current-layer="layer1" />
  <defs
     id="defs953" />
  <g
     inkscape:label="Capa 1"
     inkscape:groupmode="layer"
     id="layer1"
     style="display:inline"
     transform="translate(-0.4202098,-0.21835249)">
    <path
       style="fill:#ff0000;fill-opacity:1;stroke-width:0.264583"
       d="m 39.531045,43.980182 c -5.545748,-0.77983 -10.224756,-3.712985 -12.13789,-7.608945 -0.651197,-1.326116 -0.744966,-1.819035 -0.741772,-3.899263 0.0028,-1.824842 0.120184,-2.59688 0.502359,-3.304077 0.459899,-0.851024 0.521372,-0.883745 0.790093,-0.420544 0.849305,1.463979 2.623593,3.308064 4.263896,4.43163 3.548419,2.430582 8.290194,3.658616 14.126905,3.658616 4.373248,0 6.106065,-0.233876 16.82559,-2.270932 20.166395,-3.832262 25.466057,-4.39742 32.014587,-3.414048 5.385117,0.80867 10.605437,2.779426 9.972167,3.764658 -0.16403,0.255201 -0.76969,0.187293 -2.71046,-0.303908 -3.403747,-0.861476 -6.574107,-1.213723 -10.931917,-1.214607 -6.743538,-0.0013 -10.806956,0.88266 -23.780389,5.173625 -8.863827,2.931713 -14.015048,4.365654 -17.995894,5.00951 -3.114649,0.503756 -8.070641,0.697328 -10.197275,0.398285 z M 7.6962694,30.841352 c -0.290902,-0.352483 -0.363126,-2.109478 -0.363126,-8.833794 0,-7.890799 -0.03029,-8.42739 -0.505496,-8.954334 -0.278022,-0.308295 -0.456616,-0.599974 -0.396875,-0.648179 0.356279,-0.287472 2.427134,-0.945454 3.465839,-1.101217 1.0342446,-0.155093 1.3055756,-0.09823 1.7760326,0.372229 0.666583,0.666584 0.673663,0.987055 0.158416,7.169875 -0.212223,2.546615 -0.388339,5.018569 -0.391368,5.493232 l -0.0055,0.863023 1.124479,-0.171765 c 5.447699,-0.832135 9.330499,-3.318155 11.232814,-7.191973 0.610108,-1.242401 0.739582,-1.853451 0.739582,-3.490433 0,-1.703152 -0.1064,-2.165393 -0.75079,-3.261678 C 22.956875,9.6855018 21.243389,8.4321338 19.508053,7.9613288 17.78158,7.4929258 13.748428,7.8307088 11.169609,8.6596828 6.3569374,10.206742 3.7612764,12.247761 3.7612764,14.484999 c 0,0.592624 -0.08581,0.667646 -0.595313,0.520501 -1.861471,-0.537594 -2.954968,-2.228585 -2.712248,-4.194241 0.639249,-5.1769122 6.693944,-9.2520062 14.2928266,-9.6197392 6.355509,-0.307563 10.489981,1.428969 13.105127,5.504325 1.765922,2.75195 2.341682,6.9331072 1.434386,10.4164582 C 27.482168,24.037886 20.519542,29.437105 11.526256,30.88427 8.4232244,31.383597 8.1411794,31.380438 7.6962764,30.84135 Z M 109.19772,29.599475 c -2.97516,-1.376823 -3.41877,-4.322898 -2.11722,-14.060834 0.83874,-6.2753002 0.90581,-8.4183802 0.3001,-9.5896782 -0.40779,-0.788577 -0.40594,-0.856599 0.0296,-1.089586 0.25552,-0.136675 1.19541,-0.392236 2.08866,-0.567912 1.32831,-0.261244 1.76197,-0.253534 2.38125,0.04234 0.69316,0.331177 0.76369,0.496189 0.83435,1.95202 0.0451,0.929494 -0.36714,4.4562602 -0.99218,8.4878142 -1.2134,7.826473 -1.31757,9.956874 -0.55955,11.442722 0.61876,1.212879 0.97684,1.526595 2.24263,1.964825 l 0.97706,0.338267 -0.67776,0.636722 c -0.83192,0.781555 -3.25997,1.020374 -4.50697,0.443299 z M 49.336183,27.828912 C 46.132735,26.201085 45.735061,23.905189 46.607893,12.077658 47.161255,4.5791858 47.1535,3.9209028 46.486168,1.7431568 c -0.152336,-0.497133 -0.0011,-0.623945 1.238803,-1.038045 1.879542,-0.627777 3.767378,-0.651076 4.365051,-0.05387 0.435327,0.434985 0.42236,0.752977 -0.253566,6.217708 C 50.437154,18.182044 50.363428,20.47859 51.301,23.548352 c 0.243544,0.797396 0.859957,1.888011 1.438736,2.545538 0.964665,1.095917 0.990142,1.170763 0.537847,1.580081 -0.81316,0.735902 -2.655583,0.808331 -3.9414,0.154945 z m 8.927539,0.310555 C 56.159364,27.449386 54.6655,26.04706 53.900304,24.043429 c -0.632211,-1.655427 -0.447053,-5.518423 0.365127,-7.617664 1.187474,-3.06927 3.978069,-5.252749 6.713271,-5.252749 1.677474,0 3.600756,0.86718 4.107656,1.852083 0.623813,1.212067 -0.137756,3.89481 -1.279041,4.505606 -0.453618,0.242768 -0.656696,0.160954 -1.29404,-0.521322 -1.573758,-1.684716 -3.959479,-0.787792 -4.72807,1.777539 -0.849423,2.835119 -0.559699,4.955199 0.816756,5.976708 0.68644,0.509431 0.804762,0.51952 1.847831,0.157562 0.720408,-0.249987 1.303028,-0.687144 1.647846,-1.236422 0.628423,-1.00104 0.893763,-1.050811 1.800339,-0.337696 1.492173,1.173742 1.04113,3.2551 -0.922488,4.256863 -1.189289,0.606729 -3.643903,0.885717 -4.711769,0.53553 z M 41.502109,27.830198 c -1.059913,-0.311872 -1.689238,-0.95319 -2.032227,-2.070946 -0.162052,-0.528106 -0.343752,-1.115172 -0.403776,-1.304589 -0.06413,-0.202383 -0.579694,0.234026 -1.250288,1.058333 -1.429795,1.757534 -2.517931,2.126684 -4.052549,1.37483 -2.078577,-1.018357 -2.929901,-3.508629 -2.65875,-7.77731 0.08781,-1.382448 0.29601,-3.266025 0.462658,-4.185727 0.355891,-1.964095 0.657265,-2.164273 3.258389,-2.164273 h 1.661099 l -0.345308,1.785937 c -0.189918,0.982266 -0.42658,2.881919 -0.525915,4.221449 -0.151072,2.037204 -0.108455,2.54563 0.260583,3.108854 0.528018,0.805857 1.183907,0.855879 2.071166,0.157961 0.63395,-0.498665 0.660927,-0.654264 0.831726,-4.797412 0.218567,-5.301853 0.347742,-5.638966 2.201952,-5.746599 0.798359,-0.04634 1.76325,0.08757 2.32641,0.322874 0.804402,0.3361 0.920313,0.480446 0.706549,0.879869 -0.488654,0.913059 -0.845019,3.744878 -0.846416,6.725963 -0.0019,3.704508 0.478169,5.532882 1.772714,6.753793 l 0.90492,0.853451 -0.735118,0.370758 c -0.993339,0.500991 -2.685968,0.704035 -3.607819,0.432784 z m 29.915688,-0.0132 c -3.758618,-0.590145 -5.771147,-3.59383 -5.41133,-8.076374 0.239298,-2.981132 2.336131,-6.285132 4.814782,-7.586697 2.449311,-1.286158 5.870025,-0.420399 7.181588,1.817614 1.203531,2.053672 0.650425,5.24719 -1.174792,6.783011 -0.971558,0.81751 -3.098755,1.651511 -4.870424,1.909525 -1.363017,0.198501 -1.507149,0.463335 -0.805892,1.480793 0.689044,0.999742 1.185162,1.298035 2.174164,1.30723 0.732562,0.0068 1.122222,-0.218033 2.042657,-1.178653 0.985023,-1.028025 1.222248,-1.154808 1.770645,-0.946309 1.819129,0.691632 0.893638,3.234431 -1.484932,4.079865 -1.496084,0.531765 -2.711664,0.649406 -4.236466,0.409995 z m 0.873011,-6.920547 c 0.480955,-0.327422 1.241954,-1.051925 1.691111,-1.610005 0.713782,-0.886881 0.816859,-1.220153 0.818311,-2.645834 l 0.0017,-1.631135 -0.824492,-0.08027 c -0.648147,-0.0631 -0.969145,0.09164 -1.500801,0.723476 -0.762731,0.906455 -1.619986,3.033964 -1.899695,4.714606 -0.166569,1.000813 -0.130699,1.124479 0.326146,1.124479 0.282313,0 0.906804,-0.267891 1.387758,-0.595313 z m 10.713167,6.962497 c -1.174716,-0.285983 -2.42679,-0.996979 -2.613771,-1.484241 -0.574498,-1.497118 0.14478,-2.677962 1.794253,-2.945635 0.929069,-0.150768 0.956996,-0.132676 0.732264,0.474329 -0.624629,1.687139 1.203491,2.685627 3.111042,1.699196 0.83903,-0.433879 1.07725,-0.882316 1.07725,-2.027827 0,-1.074738 -0.93611,-1.931691 -2.668549,-2.442906 -2.083949,-0.614937 -3.111109,-1.344636 -3.69102,-2.622124 -1.101008,-2.425409 -0.440647,-4.544444 1.84866,-5.932189 3.344009,-2.027086 8.744249,-1.011502 8.744249,1.644471 0,0.486915 -0.11693,1.192842 -0.25984,1.568725 l -0.25984,0.683429 -1.0459,-1.045898 c -0.98971,-0.989711 -2.37578,-1.604658 -3.62426,-1.60795 -0.84676,-0.0021 -1.953913,0.992164 -1.953913,1.754913 0,1.150953 0.472829,1.615403 2.390563,2.348211 2.16166,0.826016 3.19305,1.607974 3.79554,2.877625 0.48995,1.032494 0.56003,2.953141 0.14767,4.046905 -0.91684,2.431833 -4.316,3.792045 -7.524398,3.010966 z m 13.229168,-0.146952 c -3.67643,-1.289222 -5.04604,-7.812709 -2.63912,-12.570227 1.22156,-2.414535 1.78108,-2.651649 6.475577,-2.744214 2.10967,-0.0416 3.09404,0.55099 4.01218,2.415331 0.53413,1.084575 0.61802,1.65 0.61802,4.165341 0,3.805373 -0.55186,5.600885 -2.2386,7.283365 -1.76549,1.761033 -3.914847,2.261582 -6.228057,1.450404 z m 3.74649,-3.524568 c 0.801547,-1.193638 1.219667,-3.416286 1.107457,-5.887042 -0.079,-1.740591 -0.1928,-2.165533 -0.73393,-2.741539 -0.801137,-0.85277 -1.098397,-0.852389 -2.114607,0.0027 -1.84339,1.551109 -2.42991,7.466714 -0.90714,9.149355 0.71259,0.787408 1.92948,0.546868 2.64822,-0.523474 z"
       id="path1203" />
  </g>
</svg>
